<!--?xml version="1.0" standalone="no"?-->
              <svg id="sw-js-blob-svg" viewBox="0 0 100 100" xmlns="http://www.w3.org/2000/svg" version="1.1">
                    <defs> 
                        <linearGradient id="sw-gradient" x1="0" x2="1" y1="1" y2="0">
                            <stop id="stop1" stop-color="rgba(248, 55, 55, 1)" offset="0%"></stop>
                            <stop id="stop2" stop-color="rgba(176.166, 31, 251, 1)" offset="100%"></stop>
                        </linearGradient>
                    </defs>
                <path fill="url(#sw-gradient)" d="M20.7,-37.4C25.8,-32.9,28.1,-25.3,31.5,-18.5C34.8,-11.7,39.1,-5.9,38.4,-0.4C37.6,5,31.7,9.9,27.5,15.3C23.4,20.6,21,26.4,16.7,28.9C12.4,31.5,6.2,30.9,0.6,29.7C-4.9,28.6,-9.8,27,-16.7,26C-23.7,25,-32.7,24.5,-37.1,20.3C-41.5,16.1,-41.3,8,-41.5,-0.1C-41.6,-8.2,-42.2,-16.5,-38.7,-22.3C-35.3,-28.2,-27.8,-31.7,-20.7,-35C-13.5,-38.3,-6.8,-41.3,0.5,-42.2C7.8,-43.1,15.6,-41.9,20.7,-37.4Z" width="100%" height="100%" transform="translate(50 50)" stroke-width="0" style="transition: all 0.3s ease 0s;" stroke="url(#sw-gradient)"></path>
              </svg>