<!--?xml version="1.0" standalone="no"?-->
              <svg id="sw-js-blob-svg" viewBox="0 0 100 100" xmlns="http://www.w3.org/2000/svg" version="1.1">
                    <defs> 
                        <linearGradient id="sw-gradient" x1="0" x2="1" y1="1" y2="0">
                            <stop id="stop1" stop-color="rgba(248, 55, 55, 1)" offset="0%"></stop>
                            <stop id="stop2" stop-color="rgba(176.166, 31, 251, 1)" offset="100%"></stop>
                        </linearGradient>
                    </defs>
                <path fill="url(#sw-gradient)" d="M17.2,-29C23.5,-26.1,30.8,-24,36.1,-19.3C41.4,-14.6,44.7,-7.3,43.5,-0.7C42.2,5.9,36.4,11.8,32.2,18.3C27.9,24.8,25.2,31.8,20.1,33.2C15,34.6,7.5,30.3,-0.2,30.7C-7.9,31,-15.8,36,-22.8,35.8C-29.9,35.5,-36,29.9,-38.9,23.1C-41.7,16.2,-41.2,8.1,-41.3,-0.1C-41.4,-8.3,-42.1,-16.5,-38.6,-22.2C-35.1,-27.8,-27.4,-30.9,-20.2,-33.3C-13.1,-35.6,-6.5,-37.3,-0.6,-36.3C5.4,-35.4,10.9,-31.8,17.2,-29Z" width="100%" height="100%" transform="translate(50 50)" stroke-width="0" style="transition: all 0.3s ease 0s;" stroke="url(#sw-gradient)"></path>
              </svg>