<!--?xml version="1.0" standalone="no"?-->
              <svg id="sw-js-blob-svg" viewBox="0 0 100 100" xmlns="http://www.w3.org/2000/svg" version="1.1">
                    <defs> 
                        <linearGradient id="sw-gradient" x1="0" x2="1" y1="1" y2="0">
                            <stop id="stop1" stop-color="rgba(248, 55, 55, 1)" offset="0%"></stop>
                            <stop id="stop2" stop-color="rgba(176.166, 31, 251, 1)" offset="100%"></stop>
                        </linearGradient>
                    </defs>
                <path fill="url(#sw-gradient)" d="M18.7,-33.3C24.7,-29,30.3,-24.8,34.5,-19.3C38.7,-13.8,41.6,-6.9,40.7,-0.5C39.9,5.9,35.3,11.8,31.3,17.7C27.2,23.5,23.7,29.3,18.6,31.2C13.5,33,6.7,31,1.1,29C-4.5,27,-8.9,25.1,-14.4,23.5C-19.9,21.8,-26.5,20.4,-28.8,16.6C-31.1,12.7,-29.2,6.3,-29.2,0C-29.3,-6.4,-31.3,-12.8,-30.3,-19C-29.3,-25.2,-25.4,-31.1,-19.8,-35.7C-14.3,-40.2,-7.1,-43.3,-0.4,-42.7C6.4,-42,12.8,-37.6,18.7,-33.3Z" width="100%" height="100%" transform="translate(50 50)" stroke-width="0" style="transition: all 0.3s ease 0s;" stroke="url(#sw-gradient)"></path>
              </svg>