<!--?xml version="1.0" standalone="no"?-->
              <svg id="sw-js-blob-svg" viewBox="0 0 100 100" xmlns="http://www.w3.org/2000/svg" version="1.1">
                    <defs> 
                        <linearGradient id="sw-gradient" x1="0" x2="1" y1="1" y2="0">
                            <stop id="stop1" stop-color="rgba(248, 55, 55, 1)" offset="0%"></stop>
                            <stop id="stop2" stop-color="rgba(176.166, 31, 251, 1)" offset="100%"></stop>
                        </linearGradient>
                    </defs>
                <path fill="url(#sw-gradient)" d="M19,-30.2C25.6,-29.1,32.7,-26,37.5,-20.7C42.3,-15.3,44.9,-7.7,43.3,-0.9C41.8,5.9,36.2,11.8,31.8,17.8C27.4,23.9,24.2,30.1,19.1,34.3C14,38.6,7,40.8,0.4,40.1C-6.3,39.5,-12.6,36.1,-17.2,31.6C-21.8,27.1,-24.7,21.5,-29.4,16.1C-34.1,10.6,-40.6,5.3,-41.7,-0.6C-42.8,-6.6,-38.5,-13.2,-34.3,-19.5C-30.1,-25.9,-26.1,-32,-20.4,-33.7C-14.7,-35.4,-7.3,-32.7,-0.6,-31.7C6.2,-30.7,12.4,-31.4,19,-30.2Z" width="100%" height="100%" transform="translate(50 50)" stroke-width="0" style="transition: all 0.3s ease 0s;" stroke="url(#sw-gradient)"></path>
              </svg>