<!--?xml version="1.0" standalone="no"?-->
              <svg id="sw-js-blob-svg" viewBox="0 0 100 100" xmlns="http://www.w3.org/2000/svg" version="1.1">
                    <defs> 
                        <linearGradient id="sw-gradient" x1="0" x2="1" y1="1" y2="0">
                            <stop id="stop1" stop-color="rgba(248, 55, 55, 1)" offset="0%"></stop>
                            <stop id="stop2" stop-color="rgba(176.166, 31, 251, 1)" offset="100%"></stop>
                        </linearGradient>
                    </defs>
                <path fill="url(#sw-gradient)" d="M22,-36.9C28.3,-34.4,33.1,-28.1,35.6,-21.4C38.1,-14.6,38.2,-7.3,37.4,-0.4C36.6,6.4,35,12.8,31.7,18.2C28.5,23.7,23.6,28.1,18.1,30.1C12.6,32,6.3,31.3,-0.6,32.4C-7.5,33.5,-15.1,36.3,-19.3,33.7C-23.5,31,-24.4,22.8,-26.9,16.3C-29.4,9.8,-33.5,4.9,-34.6,-0.7C-35.8,-6.2,-34,-12.4,-30.8,-17.6C-27.5,-22.8,-22.8,-27,-17.4,-30.1C-12,-33.2,-6,-35.2,0.9,-36.7C7.8,-38.3,15.6,-39.5,22,-36.9Z" width="100%" height="100%" transform="translate(50 50)" stroke-width="0" style="transition: all 0.3s ease 0s;" stroke="url(#sw-gradient)"></path>
              </svg>