<!--?xml version="1.0" standalone="no"?-->
              <svg id="sw-js-blob-svg" viewBox="0 0 100 100" xmlns="http://www.w3.org/2000/svg" version="1.1">
                    <defs> 
                        <linearGradient id="sw-gradient" x1="0" x2="1" y1="1" y2="0">
                            <stop id="stop1" stop-color="rgba(248, 55, 55, 1)" offset="0%"></stop>
                            <stop id="stop2" stop-color="rgba(176.166, 31, 251, 1)" offset="100%"></stop>
                        </linearGradient>
                    </defs>
                <path fill="url(#sw-gradient)" d="M19.8,-36.1C23.6,-32.1,23.1,-22.6,25,-15.7C26.9,-8.7,31.1,-4.4,33.5,1.4C35.9,7.1,36.4,14.2,32.9,18.4C29.4,22.5,21.9,23.8,15.8,26.1C9.6,28.5,4.8,31.9,0.1,31.7C-4.6,31.6,-9.2,27.8,-16.3,26C-23.3,24.1,-32.8,24.3,-36.3,20.3C-39.9,16.3,-37.5,8.1,-36.9,0.4C-36.2,-7.4,-37.4,-14.8,-35.2,-21.1C-33,-27.5,-27.4,-32.7,-21,-35.2C-14.6,-37.7,-7.3,-37.4,0.4,-38C8,-38.6,16,-40.1,19.8,-36.1Z" width="100%" height="100%" transform="translate(50 50)" stroke-width="0" style="transition: all 0.3s ease 0s;" stroke="url(#sw-gradient)"></path>
              </svg>