<?xml version="1.0" standalone="no"?>
<svg xmlns:xlink="http://www.w3.org/1999/xlink" id="wave" style="transform:rotate(180deg); transition: 0.3s" viewBox="0 0 1440 190" version="1.1" xmlns="http://www.w3.org/2000/svg"><defs><linearGradient id="sw-gradient-0" x1="0" x2="0" y1="1" y2="0"><stop stop-color="rgba(199.826, 62, 243, 1)" offset="0%"/><stop stop-color="rgba(255, 11, 230.548, 1)" offset="100%"/></linearGradient></defs><path style="transform:translate(0, 0px); opacity:1" fill="url(#sw-gradient-0)" d="M0,95L10,82.3C20,70,40,44,60,28.5C80,13,100,6,120,25.3C140,44,160,89,180,117.2C200,146,220,158,240,136.2C260,114,280,57,300,34.8C320,13,340,25,360,53.8C380,82,400,127,420,123.5C440,120,460,70,480,69.7C500,70,520,120,540,136.2C560,152,580,133,600,123.5C620,114,640,114,660,117.2C680,120,700,127,720,126.7C740,127,760,120,780,98.2C800,76,820,38,840,25.3C860,13,880,25,900,47.5C920,70,940,101,960,120.3C980,139,1000,146,1020,139.3C1040,133,1060,114,1080,101.3C1100,89,1120,82,1140,66.5C1160,51,1180,25,1200,31.7C1220,38,1240,76,1260,76C1280,76,1300,38,1320,31.7C1340,25,1360,51,1380,60.2C1400,70,1420,63,1430,60.2L1440,57L1440,190L1430,190C1420,190,1400,190,1380,190C1360,190,1340,190,1320,190C1300,190,1280,190,1260,190C1240,190,1220,190,1200,190C1180,190,1160,190,1140,190C1120,190,1100,190,1080,190C1060,190,1040,190,1020,190C1000,190,980,190,960,190C940,190,920,190,900,190C880,190,860,190,840,190C820,190,800,190,780,190C760,190,740,190,720,190C700,190,680,190,660,190C640,190,620,190,600,190C580,190,560,190,540,190C520,190,500,190,480,190C460,190,440,190,420,190C400,190,380,190,360,190C340,190,320,190,300,190C280,190,260,190,240,190C220,190,200,190,180,190C160,190,140,190,120,190C100,190,80,190,60,190C40,190,20,190,10,190L0,190Z"/><defs><linearGradient id="sw-gradient-1" x1="0" x2="0" y1="1" y2="0"><stop stop-color="rgba(180.281, 89.235, 227.216, 1)" offset="0%"/><stop stop-color="rgba(234.046, 99.846, 220.598, 1)" offset="100%"/></linearGradient></defs><path style="transform:translate(0, 50px); opacity:0.9" fill="url(#sw-gradient-1)" d="M0,95L10,91.8C20,89,40,82,60,91.8C80,101,100,127,120,117.2C140,108,160,63,180,57C200,51,220,82,240,79.2C260,76,280,38,300,47.5C320,57,340,114,360,123.5C380,133,400,95,420,95C440,95,460,133,480,142.5C500,152,520,133,540,123.5C560,114,580,114,600,104.5C620,95,640,76,660,82.3C680,89,700,120,720,114C740,108,760,63,780,60.2C800,57,820,95,840,120.3C860,146,880,158,900,164.7C920,171,940,171,960,148.8C980,127,1000,82,1020,66.5C1040,51,1060,63,1080,63.3C1100,63,1120,51,1140,44.3C1160,38,1180,38,1200,53.8C1220,70,1240,101,1260,95C1280,89,1300,44,1320,38C1340,32,1360,63,1380,82.3C1400,101,1420,108,1430,110.8L1440,114L1440,190L1430,190C1420,190,1400,190,1380,190C1360,190,1340,190,1320,190C1300,190,1280,190,1260,190C1240,190,1220,190,1200,190C1180,190,1160,190,1140,190C1120,190,1100,190,1080,190C1060,190,1040,190,1020,190C1000,190,980,190,960,190C940,190,920,190,900,190C880,190,860,190,840,190C820,190,800,190,780,190C760,190,740,190,720,190C700,190,680,190,660,190C640,190,620,190,600,190C580,190,560,190,540,190C520,190,500,190,480,190C460,190,440,190,420,190C400,190,380,190,360,190C340,190,320,190,300,190C280,190,260,190,240,190C220,190,200,190,180,190C160,190,140,190,120,190C100,190,80,190,60,190C40,190,20,190,10,190L0,190Z"/><defs><linearGradient id="sw-gradient-2" x1="0" x2="0" y1="1" y2="0"><stop stop-color="rgba(227.216, 91.8, 91.8, 1)" offset="0%"/><stop stop-color="rgba(155.471, 11, 255, 1)" offset="100%"/></linearGradient></defs><path style="transform:translate(0, 100px); opacity:0.8" fill="url(#sw-gradient-2)" d="M0,171L10,142.5C20,114,40,57,60,41.2C80,25,100,51,120,69.7C140,89,160,101,180,98.2C200,95,220,76,240,63.3C260,51,280,44,300,50.7C320,57,340,76,360,88.7C380,101,400,108,420,101.3C440,95,460,76,480,76C500,76,520,95,540,88.7C560,82,580,51,600,31.7C620,13,640,6,660,19C680,32,700,63,720,66.5C740,70,760,44,780,38C800,32,820,44,840,57C860,70,880,82,900,72.8C920,63,940,32,960,22.2C980,13,1000,25,1020,41.2C1040,57,1060,76,1080,91.8C1100,108,1120,120,1140,126.7C1160,133,1180,133,1200,117.2C1220,101,1240,70,1260,53.8C1280,38,1300,38,1320,47.5C1340,57,1360,76,1380,91.8C1400,108,1420,120,1430,126.7L1440,133L1440,190L1430,190C1420,190,1400,190,1380,190C1360,190,1340,190,1320,190C1300,190,1280,190,1260,190C1240,190,1220,190,1200,190C1180,190,1160,190,1140,190C1120,190,1100,190,1080,190C1060,190,1040,190,1020,190C1000,190,980,190,960,190C940,190,920,190,900,190C880,190,860,190,840,190C820,190,800,190,780,190C760,190,740,190,720,190C700,190,680,190,660,190C640,190,620,190,600,190C580,190,560,190,540,190C520,190,500,190,480,190C460,190,440,190,420,190C400,190,380,190,360,190C340,190,320,190,300,190C280,190,260,190,240,190C220,190,200,190,180,190C160,190,140,190,120,190C100,190,80,190,60,190C40,190,20,190,10,190L0,190Z"/><defs><linearGradient id="sw-gradient-3" x1="0" x2="0" y1="1" y2="0"><stop stop-color="rgba(215.832, 14.089, 209.283, 1)" offset="0%"/><stop stop-color="rgba(213.329, 11, 255, 1)" offset="100%"/></linearGradient></defs><path style="transform:translate(0, 150px); opacity:0.7" fill="url(#sw-gradient-3)" d="M0,95L10,85.5C20,76,40,57,60,53.8C80,51,100,63,120,72.8C140,82,160,89,180,79.2C200,70,220,44,240,44.3C260,44,280,70,300,88.7C320,108,340,120,360,123.5C380,127,400,120,420,120.3C440,120,460,127,480,129.8C500,133,520,133,540,126.7C560,120,580,108,600,95C620,82,640,70,660,69.7C680,70,700,82,720,82.3C740,82,760,70,780,66.5C800,63,820,70,840,60.2C860,51,880,25,900,12.7C920,0,940,0,960,6.3C980,13,1000,25,1020,50.7C1040,76,1060,114,1080,129.8C1100,146,1120,139,1140,126.7C1160,114,1180,95,1200,88.7C1220,82,1240,89,1260,95C1280,101,1300,108,1320,114C1340,120,1360,127,1380,123.5C1400,120,1420,108,1430,101.3L1440,95L1440,190L1430,190C1420,190,1400,190,1380,190C1360,190,1340,190,1320,190C1300,190,1280,190,1260,190C1240,190,1220,190,1200,190C1180,190,1160,190,1140,190C1120,190,1100,190,1080,190C1060,190,1040,190,1020,190C1000,190,980,190,960,190C940,190,920,190,900,190C880,190,860,190,840,190C820,190,800,190,780,190C760,190,740,190,720,190C700,190,680,190,660,190C640,190,620,190,600,190C580,190,560,190,540,190C520,190,500,190,480,190C460,190,440,190,420,190C400,190,380,190,360,190C340,190,320,190,300,190C280,190,260,190,240,190C220,190,200,190,180,190C160,190,140,190,120,190C100,190,80,190,60,190C40,190,20,190,10,190L0,190Z"/></svg>