<?xml version="1.0" standalone="no"?>
<svg xmlns:xlink="http://www.w3.org/1999/xlink" id="wave" style="transform:rotate(0deg); transition: 0.3s" viewBox="0 0 1440 360" version="1.1" xmlns="http://www.w3.org/2000/svg"><defs><linearGradient id="sw-gradient-0" x1="0" x2="0" y1="1" y2="0"><stop stop-color="rgba(243, 62, 237.124, 1)" offset="0%"/><stop stop-color="rgba(155.471, 11, 255, 1)" offset="100%"/></linearGradient></defs><path style="transform:translate(0, 0px); opacity:1" fill="url(#sw-gradient-0)" d="M0,36L15,42C30,48,60,60,90,78C120,96,150,120,180,126C210,132,240,120,270,96C300,72,330,36,360,30C390,24,420,48,450,96C480,144,510,216,540,252C570,288,600,288,630,240C660,192,690,96,720,102C750,108,780,216,810,234C840,252,870,180,900,144C930,108,960,108,990,96C1020,84,1050,60,1080,72C1110,84,1140,132,1170,126C1200,120,1230,60,1260,48C1290,36,1320,72,1350,108C1380,144,1410,180,1440,186C1470,192,1500,168,1530,168C1560,168,1590,192,1620,198C1650,204,1680,192,1710,174C1740,156,1770,132,1800,156C1830,180,1860,252,1890,258C1920,264,1950,204,1980,186C2010,168,2040,192,2070,180C2100,168,2130,120,2145,96L2160,72L2160,360L2145,360C2130,360,2100,360,2070,360C2040,360,2010,360,1980,360C1950,360,1920,360,1890,360C1860,360,1830,360,1800,360C1770,360,1740,360,1710,360C1680,360,1650,360,1620,360C1590,360,1560,360,1530,360C1500,360,1470,360,1440,360C1410,360,1380,360,1350,360C1320,360,1290,360,1260,360C1230,360,1200,360,1170,360C1140,360,1110,360,1080,360C1050,360,1020,360,990,360C960,360,930,360,900,360C870,360,840,360,810,360C780,360,750,360,720,360C690,360,660,360,630,360C600,360,570,360,540,360C510,360,480,360,450,360C420,360,390,360,360,360C330,360,300,360,270,360C240,360,210,360,180,360C150,360,120,360,90,360C60,360,30,360,15,360L0,360Z"/><defs><linearGradient id="sw-gradient-1" x1="0" x2="0" y1="1" y2="0"><stop stop-color="rgba(187.563, 62, 243, 1)" offset="0%"/><stop stop-color="rgba(255, 11, 156.16, 1)" offset="100%"/></linearGradient></defs><path style="transform:translate(0, 50px); opacity:0.9" fill="url(#sw-gradient-1)" d="M0,180L15,186C30,192,60,204,90,228C120,252,150,288,180,252C210,216,240,108,270,90C300,72,330,144,360,180C390,216,420,216,450,204C480,192,510,168,540,144C570,120,600,96,630,96C660,96,690,120,720,126C750,132,780,120,810,96C840,72,870,36,900,66C930,96,960,192,990,204C1020,216,1050,144,1080,144C1110,144,1140,216,1170,240C1200,264,1230,240,1260,210C1290,180,1320,144,1350,150C1380,156,1410,204,1440,222C1470,240,1500,228,1530,186C1560,144,1590,72,1620,42C1650,12,1680,24,1710,30C1740,36,1770,36,1800,72C1830,108,1860,180,1890,198C1920,216,1950,180,1980,192C2010,204,2040,264,2070,246C2100,228,2130,132,2145,84L2160,36L2160,360L2145,360C2130,360,2100,360,2070,360C2040,360,2010,360,1980,360C1950,360,1920,360,1890,360C1860,360,1830,360,1800,360C1770,360,1740,360,1710,360C1680,360,1650,360,1620,360C1590,360,1560,360,1530,360C1500,360,1470,360,1440,360C1410,360,1380,360,1350,360C1320,360,1290,360,1260,360C1230,360,1200,360,1170,360C1140,360,1110,360,1080,360C1050,360,1020,360,990,360C960,360,930,360,900,360C870,360,840,360,810,360C780,360,750,360,720,360C690,360,660,360,630,360C600,360,570,360,540,360C510,360,480,360,450,360C420,360,390,360,360,360C330,360,300,360,270,360C240,360,210,360,180,360C150,360,120,360,90,360C60,360,30,360,15,360L0,360Z"/><defs><linearGradient id="sw-gradient-2" x1="0" x2="0" y1="1" y2="0"><stop stop-color="rgba(218.219, 62, 243, 0.34)" offset="0%"/><stop stop-color="rgba(238.125, 11, 255, 1)" offset="100%"/></linearGradient></defs><path style="transform:translate(0, 100px); opacity:0.8" fill="url(#sw-gradient-2)" d="M0,252L15,234C30,216,60,180,90,174C120,168,150,192,180,222C210,252,240,288,270,252C300,216,330,108,360,90C390,72,420,144,450,192C480,240,510,264,540,264C570,264,600,240,630,198C660,156,690,96,720,96C750,96,780,156,810,150C840,144,870,72,900,78C930,84,960,168,990,186C1020,204,1050,156,1080,168C1110,180,1140,252,1170,288C1200,324,1230,324,1260,270C1290,216,1320,108,1350,96C1380,84,1410,168,1440,222C1470,276,1500,300,1530,294C1560,288,1590,252,1620,240C1650,228,1680,240,1710,258C1740,276,1770,300,1800,282C1830,264,1860,204,1890,180C1920,156,1950,168,1980,156C2010,144,2040,108,2070,108C2100,108,2130,144,2145,162L2160,180L2160,360L2145,360C2130,360,2100,360,2070,360C2040,360,2010,360,1980,360C1950,360,1920,360,1890,360C1860,360,1830,360,1800,360C1770,360,1740,360,1710,360C1680,360,1650,360,1620,360C1590,360,1560,360,1530,360C1500,360,1470,360,1440,360C1410,360,1380,360,1350,360C1320,360,1290,360,1260,360C1230,360,1200,360,1170,360C1140,360,1110,360,1080,360C1050,360,1020,360,990,360C960,360,930,360,900,360C870,360,840,360,810,360C780,360,750,360,720,360C690,360,660,360,630,360C600,360,570,360,540,360C510,360,480,360,450,360C420,360,390,360,360,360C330,360,300,360,270,360C240,360,210,360,180,360C150,360,120,360,90,360C60,360,30,360,15,360L0,360Z"/><defs><linearGradient id="sw-gradient-3" x1="0" x2="0" y1="1" y2="0"><stop stop-color="rgba(243, 62, 62, 1)" offset="0%"/><stop stop-color="rgba(205.064, 11, 255, 1)" offset="100%"/></linearGradient></defs><path style="transform:translate(0, 150px); opacity:0.7" fill="url(#sw-gradient-3)" d="M0,324L15,312C30,300,60,276,90,240C120,204,150,156,180,138C210,120,240,132,270,138C300,144,330,144,360,138C390,132,420,120,450,114C480,108,510,108,540,102C570,96,600,84,630,84C660,84,690,96,720,132C750,168,780,228,810,222C840,216,870,144,900,138C930,132,960,192,990,180C1020,168,1050,84,1080,90C1110,96,1140,192,1170,234C1200,276,1230,264,1260,216C1290,168,1320,84,1350,54C1380,24,1410,48,1440,102C1470,156,1500,240,1530,258C1560,276,1590,228,1620,216C1650,204,1680,228,1710,222C1740,216,1770,180,1800,150C1830,120,1860,96,1890,84C1920,72,1950,72,1980,114C2010,156,2040,240,2070,270C2100,300,2130,276,2145,264L2160,252L2160,360L2145,360C2130,360,2100,360,2070,360C2040,360,2010,360,1980,360C1950,360,1920,360,1890,360C1860,360,1830,360,1800,360C1770,360,1740,360,1710,360C1680,360,1650,360,1620,360C1590,360,1560,360,1530,360C1500,360,1470,360,1440,360C1410,360,1380,360,1350,360C1320,360,1290,360,1260,360C1230,360,1200,360,1170,360C1140,360,1110,360,1080,360C1050,360,1020,360,990,360C960,360,930,360,900,360C870,360,840,360,810,360C780,360,750,360,720,360C690,360,660,360,630,360C600,360,570,360,540,360C510,360,480,360,450,360C420,360,390,360,360,360C330,360,300,360,270,360C240,360,210,360,180,360C150,360,120,360,90,360C60,360,30,360,15,360L0,360Z"/></svg>